:version 1.10
:name ASF
:units
  mass 1
  length 1
  angle deg
:documentation
  ASF file generated by Kaydara
:root
  axis xyz
  order  tx ty tz rx ry rz
  position 0 0 0
  orientation 0 0 0
:bonedata
  begin
    id 1
    name RightUpLegDummy
    direction -1 2.30186e-007 8.31532e-007
    length 4.46685
    axis 0 0 0 xyz
  end
  begin
    id 2
    name RightUpLeg
    direction -2.30187e-007 -1 1.24343e-010
    length 16.4045
    axis -3.49089 -0.000906625 0.000286804 xyz
    dof rx ry rz
  end
  begin
    id 3
    name RightLeg
    direction -2.30181e-007 -1 -4.17157e-009
    length 17.5097
    axis 3.68512 0.0193738 -0.131023 xyz
    dof rx ry rz
  end
  begin
    id 4
    name RightFoot
    direction 8.31421e-007 -4.51202e-011 1
    length 6.49508
    axis 4.81691e-005 -0.120479 -0.188788 xyz
    dof rx ry rz
  end
  begin
    id 5
    name RightToes
    direction 0.00124746 -0.014064 0.9999
    length 3.85082
    axis 0.000481921 0.542163 -0.142578 xyz
    dof rx ry rz
  end
  begin
    id 6
    name SpineDummy
    direction 0.0717043 0.9409 -0.331007
    length 10.0032
    axis 0 0 0 xyz
  end
  begin
    id 7
    name Spine
    direction 2.30186e-007 1 4.58806e-011
    length 9.84055
    axis -0.001389 0.000121418 2.40972e-006 xyz
    dof rx ry rz
  end
  begin
    id 8
    name Spine1
    direction 0 0 0
    length 0
    axis -0.001389 0.000121451 1.30017e-006 xyz
    dof rx ry rz
  end
  begin
    id 9
    name HEadDummy
    direction -0.00347485 0.950688 -0.310128
    length 8.00997
    axis -0.001389 0.000121451 1.30017e-006 xyz
  end
  begin
    id 10
    name HEad
    direction -0.0222688 0.980941 0.193023
    length 5.12695
    axis -0.001389 0.000121451 1.30017e-006 xyz
    dof rx ry rz
  end
  begin
    id 11
    name LeftShoulder1Dummy
    direction 0.988871 0.146793 -0.0242004
    length 3.5792
    axis -0.001389 0.000121451 1.30017e-006 xyz
  end
  begin
    id 12
    name LeftShoulder1
    direction 0.993832 0.108932 0.020779
    length 4.16823
    axis -0.001389 0.000121451 1.30017e-006 xyz
    dof rx ry rz
  end
  begin
    id 13
    name LeftArm
    direction 1 3.44807e-006 -8.31404e-007
    length 9.91437
    axis -23.1894 0.134784 0.967509 xyz
    dof rx ry rz
  end
  begin
    id 14
    name LeftForeArm
    direction 1 3.44842e-006 -8.31581e-007
    length 9.08575
    axis -9.91835 -0.06569 -0.177793 xyz
    dof rx ry rz
  end
  begin
    id 15
    name LeftHand
    direction 0.992938 -0.0411636 0.11126
    length 5.32135
    axis -0.00960232 -0.00340091 0.185173 xyz
    dof rx ry rz
  end
  begin
    id 16
    name RightShoulderDummy
    direction -0.988871 0.146793 -0.0241962
    length 3.5792
    axis -0.001389 0.000121451 1.30017e-006 xyz
  end
  begin
    id 17
    name RightShoulder
    direction -0.993832 0.108933 0.0207785
    length 4.16823
    axis 0.215806 0.000203643 -0.0068026 xyz
    dof rx ry rz
  end
  begin
    id 18
    name RightArm
    direction -1 3.90912e-006 8.31284e-007
    length 9.91437
    axis -23.2009 -0.134239 -0.964101 xyz
    dof rx ry rz
  end
  begin
    id 19
    name RightForeArm
    direction -1 3.90882e-006 8.31502e-007
    length 9.08575
    axis -9.92322 0.0658061 0.178867 xyz
    dof rx ry rz
  end
  begin
    id 20
    name RightHand
    direction -0.992843 -0.0414603 0.112003
    length 5.28593
    axis -0.00960638 0.00330671 -0.185228 xyz
    dof rx ry rz
  end
  begin
    id 21
    name LeftUpLegDummy
    direction 1 -2.30186e-007 -8.31532e-007
    length 4.46685
    axis 0 0 0 xyz
  end
  begin
    id 22
    name LeftUpLeg
    direction -2.30187e-007 -1 6.00931e-010
    length 16.4045
    axis -3.48766 0.00143442 -0.000524262 xyz
    dof rx ry rz
  end
  begin
    id 23
    name LeftLeg
    direction -2.30187e-007 -1 1.6669e-009
    length 17.5097
    axis 3.68178 -0.00654042 -0.000285133 xyz
    dof rx ry rz
  end
  begin
    id 24
    name LeftFoot
    direction 8.31532e-007 -4.54478e-011 1
    length 6.49508
    axis 1.87233e-006 4.66016e-005 -8.6538e-006 xyz
    dof rx ry rz
  end
  begin
    id 25
    name LeftToes
    direction 0.00818058 -0.00485161 0.999955
    length 3.85048
    axis 1.06247e-005 4.65869e-005 -8.65513e-006 xyz
    dof rx ry rz
  end
:hierarchy
  begin
    root RightUpLegDummy SpineDummy LeftUpLegDummy
    RightUpLegDummy RightUpLeg
    RightUpLeg RightLeg
    RightLeg RightFoot
    RightFoot RightToes
    SpineDummy Spine
    Spine Spine1
    Spine1 HEadDummy LeftShoulder1Dummy RightShoulderDummy
    HEadDummy HEad
    LeftShoulder1Dummy LeftShoulder1
    LeftShoulder1 LeftArm
    LeftArm LeftForeArm
    LeftForeArm LeftHand
    RightShoulderDummy RightShoulder
    RightShoulder RightArm
    RightArm RightForeArm
    RightForeArm RightHand
    LeftUpLegDummy LeftUpLeg
    LeftUpLeg LeftLeg
    LeftLeg LeftFoot
    LeftFoot LeftToes
  end

:SAMPLES-PER-SECOND 30
:FULLY-SPECIFIED
:DEGREES
63
root  -1.17499 34.0376 0.688793 -178.913 -3.31261 179.293
RightUpLeg  2.53918 -4.46791 -1.86199
RightLeg  3.62209 -1.13388 0.00223267
RightFoot  4.64657 0.0260238 -0.106936
RightToes  -29.2081 -0.138444 -0.246478
Spine  2.15755 -2.55775 -1.17285
Spine1  4.37282 -5.07543 -2.45932
HEad  22.5945 -32.6939 20.8138
LeftShoulder1  0 -2.42657e-020 -4.95415e-022
LeftArm  -65.857 17.9535 -26.0678
LeftForeArm  62.2854 -18.7872 -3.3824
LeftHand  0.658773 -8.49304 -9.23202
RightShoulder  0 2.42657e-020 1.07489e-018
RightArm  -86.3068 -14.2377 28.5966
RightForeArm  61.651 14.2103 2.50799
RightHand  -0.411548 20.948 -1.85643
LeftUpLeg  1.75153 4.59236 -0.248277
LeftLeg  3.45826 -10.0784 0.0387202
LeftFoot  3.71217 0.0237203 -0.664798
LeftToes  -6.30585 2.37847e-007 4.89147e-008
64
root  -1.22641 34.0369 0.723967 -178.787 -2.86095 179.365
RightUpLeg  2.23385 -4.17157 -1.8567
RightLeg  3.70452 -0.999483 0.000656825
RightFoot  4.76755 0.0245445 -0.0993943
RightToes  -29.3643 -0.139568 -0.247723
Spine  2.26575 -2.60039 -1.13581
Spine1  4.59185 -5.16173 -2.3909
HEad  23.7035 -35.2418 21.9851
LeftShoulder1  0 -2.42657e-020 -4.95415e-022
LeftArm  -65.8856 18.9431 -30.2358
LeftForeArm  63.8533 -18.2145 -3.2665
LeftHand  0.647836 -8.71662 -8.86172
RightShoulder  0 2.42657e-020 1.07489e-018
RightArm  -85.21 -14.2922 32.6176
RightForeArm  63.1146 13.4941 2.37098
RightHand  -0.54548 21.0635 -2.56421
LeftUpLeg  1.67353 4.84543 -0.274546
LeftLeg  3.36463 -9.8969 0.0541272
LeftFoot  3.70562 0.02292 -0.65236
LeftToes  -6.281 2.37847e-007 4.89147e-008
65
root  -1.2715 34.0348 0.768375 -178.649 -2.31804 179.437
RightUpLeg  1.83805 -3.78335 -1.83781
RightLeg  3.87469 -0.862764 -0.00183279
RightFoot  4.86544 0.0228259 -0.0905113
RightToes  -29.554 -0.140215 -0.248854
Spine  2.39727 -2.59316 -1.07731
Spine1  4.85546 -5.14687 -2.28136
HEad  24.5988 -37.4632 22.8964
LeftShoulder1  0 -2.42657e-020 -4.95415e-022
LeftArm  -64.2427 19.7465 -34.9445
LeftForeArm  64.5274 -17.5936 -3.14413
LeftHand  0.628923 -8.80485 -8.53197
RightShoulder  0 2.42657e-020 1.07489e-018
RightArm  -82.6823 -14.2213 36.8417
RightForeArm  64.9679 12.2666 2.13951
RightHand  -0.681723 21.3526 -3.2459
LeftUpLeg  1.50919 5.1431 -0.296865
LeftLeg  3.41298 -9.66675 0.0447466
LeftFoot  3.61844 0.0210213 -0.622852
LeftToes  -6.14325 2.37847e-007 4.89147e-008
66
root  -1.32004 34.029 0.815446 -178.494 -1.79982 179.483
RightUpLeg  1.44111 -3.24433 -1.8287
RightLeg  4.0206 -0.889724 -0.00416055
RightFoot  4.94589 0.0217695 -0.0943849
RightToes  -29.7473 -0.14026 -0.249473
Spine  2.57581 -2.59934 -1.02095
Spine1  5.21235 -5.15652 -2.1789
HEad  25.2843 -38.9953 23.5073
LeftShoulder1  0 -2.42657e-020 -4.95415e-022
LeftArm  -63.0516 20.2067 -39.9723
LeftForeArm  64.1277 -16.9923 -3.02902
LeftHand  0.702478 -9.56271 -8.75973
RightShoulder  0 2.42657e-020 1.07489e-018
RightArm  -80.079 -13.8763 41.4059
RightForeArm  66.5718 11.1184 1.92525
RightHand  -0.684126 21.998 -3.14968
LeftUpLeg  1.29434 5.25829 -0.379193
LeftLeg  3.50874 -9.26293 0.0274525
LeftFoot  3.52261 0.0183386 -0.581159
LeftToes  -6.05349 2.37847e-007 4.89147e-008
67
root  -1.36487 34.0276 0.862889 -178.356 -1.27921 179.529
RightUpLeg  0.97115 -2.9519 -1.84857
RightLeg  4.33433 -0.684878 -0.00666476
RightFoot  4.97817 0.0192523 -0.0781553
RightToes  -29.9077 -0.139986 -0.249442
Spine  2.7487 -2.62311 -0.947926
Spine1  5.55681 -5.20113 -2.0501
HEad  25.4366 -40.046 24.1664
LeftShoulder1  0 -2.42657e-020 -4.95415e-022
LeftArm  -63.326 20.1546 -45.3956
LeftForeArm  63.9812 -16.3343 -2.90322
LeftHand  0.726341 -9.78075 -8.84996
RightShoulder  0 2.42657e-020 1.07489e-018
RightArm  -77.3919 -13.2709 46.2897
RightForeArm  67.3023 9.72451 1.67041
RightHand  -0.753128 22.5631 -3.40499
LeftUpLeg  1.11714 5.55558 -0.429497
LeftLeg  3.55941 -9.03495 0.0188091
LeftFoot  3.48676 0.0171053 -0.561992
LeftToes  -5.87838 2.37847e-007 4.89147e-008
68
root  -1.4039 34.005 0.927748 -178.155 -0.728912 179.542
RightUpLeg  0.109121 -2.32923 -1.8546
RightLeg  5.23289 -0.767139 -0.0194984
RightFoot  4.73046 0.0186435 -0.0942395
RightToes  -30.0703 -0.139674 -0.249117
Spine  2.93167 -2.64851 -0.79245
Spine1  5.91691 -5.24434 -1.81564
HEad  25.5303 -40.5702 24.3611
LeftShoulder1  0 -2.42657e-020 -4.95415e-022
LeftArm  -61.0716 19.8541 -50.8066
LeftForeArm  63.0732 -15.1422 -2.67904
LeftHand  0.771573 -10.3515 -8.87844
RightShoulder  0 2.42657e-020 1.07489e-018
RightArm  -73.0965 -12.5831 51.1276
RightForeArm  66.6754 9.0838 1.55645
RightHand  -0.692798 23.4752 -2.96425
LeftUpLeg  0.596221 5.88889 -0.518376
LeftLeg  4.10977 -8.79906 -0.0659395
LeftFoot  3.22143 0.0146092 -0.519543
LeftToes  -5.78646 2.37847e-007 4.89147e-008
69
root  -1.42785 33.954 1.00599 -177.971 -0.165466 179.544
RightUpLeg  -1.26174 -2.00915 -1.88271
RightLeg  7.09448 -0.560084 -0.0319734
RightFoot  4.05542 0.0165638 -0.0902709
RightToes  -30.1725 -0.139607 -0.24885
Spine  3.15341 -2.67197 -0.644594
Spine1  6.33976 -5.26257 -1.6724
HEad  25.3609 -40.9275 24.9182
LeftShoulder1  0 -2.42657e-020 -4.95415e-022
LeftArm  -55.5505 19.3942 -55.5903
LeftForeArm  61.7468 -14.2601 -2.51636
LeftHand  0.895262 -11.2052 -9.483
RightShoulder  0 2.42657e-020 1.07489e-018
RightArm  -67.4521 -12.3192 56.5627
RightForeArm  65.5718 10.6952 1.85064
RightHand  -0.583177 24.0792 -2.36444
LeftUpLeg  -0.405897 6.12917 -0.604598
LeftLeg  5.59644 -8.44189 -0.281825
LeftFoot  2.57504 0.0113384 -0.425896
LeftToes  -5.95478 2.37847e-007 4.89147e-008
70
root  -1.43178 33.8818 1.09554 -177.827 0.587891 179.536
RightUpLeg  -2.84485 -1.23204 -1.85466
RightLeg  9.36586 -0.626436 -0.0608986
RightFoot  3.18034 0.0132098 -0.0982697
RightToes  -30.4483 -0.140066 -0.248998
Spine  3.47981 -2.63888 -0.521903
Spine1  6.94214 -5.14785 -1.59056
HEad  24.5776 -41.0146 25.538
LeftShoulder1  0 -2.42657e-020 -4.95415e-022
LeftArm  -50.2735 18.3009 -60.2251
LeftForeArm  61.8549 -13.7959 -2.42942
LeftHand  0.961586 -11.8465 -9.6239
RightShoulder  0 2.42657e-020 1.07489e-018
RightArm  -61.4668 -11.7552 61.8136
RightForeArm  64.2461 12.1383 2.11766
RightHand  -0.554955 24.7429 -2.16022
LeftUpLeg  -1.55382 6.308 -0.679313
LeftLeg  7.45569 -7.84528 -0.516718
LeftFoot  1.70649 0.0069201 -0.296211
LeftToes  -6.00615 2.37847e-007 4.89147e-008
71
root  -1.42532 33.7922 1.21228 -177.687 1.61861 179.488
RightUpLeg  -4.90824 -0.137678 -1.84248
RightLeg  12.4066 -0.72443 -0.11001
RightFoot  1.97566 0.00837908 -0.0881662
RightToes  -30.4094 -0.141333 -0.249913
Spine  3.86427 -2.52396 -0.465061
Spine1  7.62464 -4.85382 -1.62054
HEad  23.4164 -40.9985 26.4934
LeftShoulder1  0 -2.42657e-020 -4.95415e-022
LeftArm  -47.3914 16.7992 -64.8967
LeftForeArm  63.124 -14.6423 -2.58482
LeftHand  0.978904 -12.3042 -9.43812
RightShoulder  0 2.42657e-020 1.07489e-018
RightArm  -55.4145 -10.7594 66.5927
RightForeArm  63.6993 13.108 2.29792
RightHand  -0.567266 25.5249 -2.13455
LeftUpLeg  -2.70212 6.7611 -0.767365
LeftLeg  9.28477 -7.24104 -0.709511
LeftFoot  0.907174 0.00343215 -0.181854
LeftToes  -6.34096 2.37847e-007 4.89147e-008
72
root  -1.38748 33.698 1.36363 -177.503 2.99321 179.333
RightUpLeg  -7.54183 1.0222 -1.90492
RightLeg  16.1981 -0.565609 -0.125321
RightFoot  0.639748 0.00244126 -0.0596563
RightToes  -30.5167 -0.14369 -0.251951
Spine  4.25258 -2.34211 -0.532427
Spine1  8.29354 -4.42188 -1.8618
HEad  22.1555 -40.8702 27.5006
LeftShoulder1  0 -2.42657e-020 -4.95415e-022
LeftArm  -46.221 14.7974 -69.1696
LeftForeArm  62.5872 -15.0138 -2.65596
LeftHand  0.939236 -12.2022 -9.14519
RightShoulder  0 2.42657e-020 1.07489e-018
RightArm  -49.5506 -9.63923 71.3903
RightForeArm  63.0399 14.156 2.49459
RightHand  -0.558415 26.0671 -2.04245
LeftUpLeg  -3.7613 7.08872 -0.947647
LeftLeg  10.7991 -6.18922 -0.772497
LeftFoot  0.262507 0.000209739 -0.0915672
LeftToes  -6.76532 2.37847e-007 4.89147e-008
